<svg width="10" height="10" viewBox="0 0 10 10" fill="none" xmlns="http://www.w3.org/2000/svg">
<g clip-path="url(#clip0)">
<path d="M5.91616 5.00876L9.80996 1.11484C10.0634 0.861559 10.0634 0.452035 9.80996 0.198752C9.55667 -0.0545318 9.14715 -0.0545318 8.89387 0.198752L4.99995 4.09267L1.10614 0.198752C0.852741 -0.0545318 0.443335 -0.0545318 0.190052 0.198752C-0.0633505 0.452035 -0.0633505 0.861559 0.190052 1.11484L4.08385 5.00876L0.190052 8.90269C-0.0633505 9.15597 -0.0633505 9.56549 0.190052 9.81878C0.316278 9.94512 0.482247 10.0086 0.648097 10.0086C0.813947 10.0086 0.979798 9.94512 1.10614 9.81878L4.99995 5.92486L8.89387 9.81878C9.02021 9.94512 9.18606 10.0086 9.35191 10.0086C9.51776 10.0086 9.68361 9.94512 9.80996 9.81878C10.0634 9.56549 10.0634 9.15597 9.80996 8.90269L5.91616 5.00876Z" fill="#707070"/>
</g>
<defs>
<clipPath id="clip0">
<rect width="10" height="10" fill="white"/>
</clipPath>
</defs>
</svg>
