<svg width="28" height="30" viewBox="0 0 28 30" fill="none" xmlns="http://www.w3.org/2000/svg">
<path d="M20.446 12.9868V7.30932C20.446 7.14684 20.3709 6.99666 20.2647 6.87792L13.8996 0.193863C13.7808 0.0688932 13.6119 0 13.4431 0H3.35129C1.48819 0 0 1.51932 0 3.38264V22.4657C0 24.329 1.48819 25.8233 3.35129 25.8233H11.3173C12.824 28.3244 15.5628 30 18.6827 30C23.4221 30 27.2926 26.1484 27.2926 21.4027C27.299 17.2573 24.3226 13.7933 20.446 12.9868ZM14.0685 2.19475L18.339 6.69024H15.569C14.7436 6.69024 14.0685 6.00882 14.0685 5.18348V2.19475ZM3.35129 24.5728C2.18216 24.5728 1.25061 23.6348 1.25061 22.4657V3.38264C1.25061 2.20711 2.18216 1.25061 3.35129 1.25061H12.8178V5.18348C12.8178 6.70278 14.0497 7.94082 15.569 7.94082H19.1954V12.824C19.0079 12.8179 18.8578 12.7991 18.6953 12.7991C16.5132 12.7991 14.5061 13.637 12.993 14.9501H5.05213C4.70809 14.9501 4.42681 15.2314 4.42681 15.5752C4.42681 15.9192 4.70809 16.2005 5.05213 16.2005H11.83C11.386 16.8258 11.017 17.4511 10.7295 18.1389H5.05213C4.70809 18.1389 4.42681 18.4202 4.42681 18.7642C4.42681 19.108 4.70809 19.3895 5.05213 19.3895H10.323C10.1667 20.0148 10.0855 20.7088 10.0855 21.4027C10.0855 22.5281 10.3042 23.6412 10.6982 24.5792H3.35129V24.5728ZM18.6891 28.7558C14.6374 28.7558 11.3422 25.4606 11.3422 21.4089C11.3422 17.3573 14.6311 14.062 18.6891 14.062C22.747 14.062 26.0358 17.3573 26.0358 21.4089C26.0358 25.4606 22.7408 28.7558 18.6891 28.7558Z" fill="#2C73F6"/>
<path d="M5.05207 13.0682H11.3859C11.7299 13.0682 12.0112 12.7867 12.0112 12.4429C12.0112 12.0989 11.7299 11.8176 11.3859 11.8176H5.05207C4.70803 11.8176 4.42676 12.0989 4.42676 12.4429C4.42676 12.7867 4.70803 13.0682 5.05207 13.0682Z" fill="#2C73F6"/>
<rect x="14.6342" y="20.7778" width="1.46341" height="4.74732" rx="0.731707" transform="rotate(-35.3536 14.6342 20.7778)" fill="#2C73F6"/>
<rect x="22.0724" y="19.0244" width="1.46341" height="6.80301" rx="0.731707" transform="rotate(50.4169 22.0724 19.0244)" fill="#2C73F6"/>
</svg>
