<svg width="30" height="30" viewBox="0 0 30 30" fill="none" xmlns="http://www.w3.org/2000/svg">
<g clip-path="url(#clip0)">
<path d="M29.9071 7.57587C29.69 7.14175 29.1622 6.96573 28.728 7.18282L25.2124 8.94063C24.7782 9.15772 24.6022 9.68565 24.8193 10.1198C25.0363 10.554 25.5642 10.73 25.9984 10.5129L29.5141 8.75507C29.9482 8.53798 30.1242 8.01005 29.9071 7.57587Z" fill="#2C73F6"/>
<path d="M29.5141 17.7294L25.9984 15.9716C25.5645 15.7546 25.0365 15.9305 24.8193 16.3646C24.6022 16.7988 24.7782 17.3268 25.2124 17.5438L28.728 19.3016C29.1622 19.5187 29.6901 19.3427 29.9071 18.9086C30.1242 18.4744 29.9482 17.9465 29.5141 17.7294Z" fill="#2C73F6"/>
<path d="M20.2733 14.122H7.03119V9.66888C7.03119 7.24574 9.02889 5.27435 11.4843 5.27435C13.9075 5.27435 15.8788 7.24574 15.8788 9.66888V11.4267C15.8788 11.9121 16.2724 12.3056 16.7578 12.3056H20.2734C20.7588 12.3056 21.1523 11.9121 21.1523 11.4267V9.66888C21.1523 4.33803 16.8153 0.000976562 11.4844 0.000976562C6.12111 0.00103516 1.75781 4.33803 1.75781 9.66894V14.2732C0.734824 14.636 0 15.6129 0 16.7587V27.3641C0 28.818 1.18283 30.0009 2.63672 30.0009H20.2733C21.7272 30.0009 22.91 28.818 22.91 27.3641V16.7587C22.91 15.3048 21.7272 14.122 20.2733 14.122ZM3.51562 9.66894C3.51562 5.30728 7.09043 1.75885 11.4843 1.75885C15.846 1.75885 19.3944 5.30734 19.3944 9.66894V10.5478H17.6366V9.66894C17.6366 6.27654 14.8767 3.51666 11.4843 3.51666C8.08189 3.51666 5.27344 6.2776 5.27344 9.66894V14.1221H3.51562V9.66894ZM21.1522 27.3641C21.1522 27.8488 20.7579 28.243 20.2733 28.243H2.63672C2.15209 28.243 1.75781 27.8488 1.75781 27.3641V16.7587C1.75781 16.2741 2.15209 15.8798 2.63672 15.8798C3.45633 15.8798 19.5635 15.8798 20.2733 15.8798C20.7579 15.8798 21.1522 16.2741 21.1522 16.7587V27.3641Z" fill="#2C73F6"/>
<path d="M11.4844 17.6367C10.0305 17.6367 8.84766 18.8196 8.84766 20.2734C8.84766 21.4192 9.58248 22.3962 10.6055 22.759V25.6055C10.6055 26.0909 10.999 26.4844 11.4844 26.4844C11.9698 26.4844 12.3633 26.0909 12.3633 25.6055V22.759C13.3863 22.3962 14.1211 21.4192 14.1211 20.2734C14.1211 18.8196 12.9383 17.6367 11.4844 17.6367ZM11.4844 21.1523C10.9997 21.1523 10.6055 20.758 10.6055 20.2734C10.6055 19.7887 10.9997 19.3945 11.4844 19.3945C11.969 19.3945 12.3633 19.7887 12.3633 20.2734C12.3633 20.758 11.969 21.1523 11.4844 21.1523Z" fill="#2C73F6"/>
<path d="M29.1208 12.3633H25.6052C25.1198 12.3633 24.7263 12.7568 24.7263 13.2422C24.7263 13.7276 25.1198 14.1211 25.6052 14.1211H29.1208C29.6062 14.1211 29.9998 13.7276 29.9998 13.2422C29.9998 12.7568 29.6062 12.3633 29.1208 12.3633Z" fill="#2C73F6"/>
</g>
<defs>
<clipPath id="clip0">
<rect width="30" height="30" fill="white"/>
</clipPath>
</defs>
</svg>
