<svg width="30" height="30" viewBox="0 0 30 30" fill="none" xmlns="http://www.w3.org/2000/svg">
<g clip-path="url(#clip0)">
<path d="M28.0053 15.3887C27.8846 15.1417 27.8846 14.8585 28.0053 14.6115L29.1242 12.3226C29.7471 11.0481 29.2535 9.5291 28.0005 8.86424L25.7499 7.6701C25.5071 7.54131 25.3406 7.3121 25.2931 7.04145L24.8529 4.53196C24.6079 3.13474 23.3154 2.19584 21.9111 2.39453L19.3885 2.75136C19.1162 2.7898 18.8469 2.70226 18.6494 2.51119L16.8183 0.739793C15.7987 -0.246568 14.2015 -0.246627 13.182 0.739793L11.3508 2.51136C11.1532 2.7025 10.884 2.78986 10.6118 2.75154L8.08914 2.39471C6.68436 2.1959 5.39238 3.13492 5.14728 4.53213L4.70713 7.04151C4.65961 7.31221 4.49315 7.54137 4.25039 7.67022L1.99982 8.86435C0.746743 9.52915 0.253152 11.0483 0.876117 12.3228L1.99496 14.6117C2.11566 14.8586 2.11566 15.1419 1.99496 15.3888L0.876058 17.6777C0.253093 18.9521 0.746684 20.4712 1.99976 21.136L4.25034 22.3302C4.49315 22.459 4.65961 22.6882 4.70713 22.9588L5.14728 25.4683C5.37041 26.7403 6.46106 27.6323 7.71455 27.6322C7.83801 27.6322 7.96328 27.6235 8.0892 27.6057L10.6118 27.2489C10.8839 27.2102 11.1533 27.298 11.3509 27.489L13.182 29.2604C13.6918 29.7537 14.3459 30.0002 15.0001 30.0002C15.6542 30.0001 16.3086 29.7535 16.8183 29.2604L18.6494 27.489C18.847 27.298 19.1163 27.2106 19.3885 27.2489L21.9111 27.6057C23.316 27.8044 24.6079 26.8655 24.8529 25.4683L25.2932 22.9589C25.3407 22.6882 25.5071 22.459 25.7499 22.3302L28.0005 21.136C29.2535 20.4712 29.7471 18.9521 29.1242 17.6776L28.0053 15.3887ZM27.1895 19.6075L24.9389 20.8016C24.2214 21.1824 23.7292 21.8597 23.5889 22.6598L23.1488 25.1693C23.0658 25.642 22.6288 25.9595 22.1534 25.8924L19.6308 25.5356C18.8263 25.4216 18.0303 25.6805 17.4464 26.2453L15.6152 28.0167C15.2703 28.3503 14.7299 28.3503 14.3849 28.0167L12.5538 26.2453C12.0604 25.7679 11.4153 25.5092 10.7418 25.5092C10.6184 25.5092 10.494 25.5179 10.3694 25.5355L7.8468 25.8924C7.37184 25.9595 6.93444 25.6419 6.85147 25.1692L6.41126 22.6597C6.27087 21.8595 5.7788 21.1823 5.06121 20.8016L2.81064 19.6075C2.38665 19.3825 2.21966 18.8686 2.43042 18.4374L3.54932 16.1485C3.90604 15.4186 3.90604 14.5815 3.54932 13.8517L2.43042 11.5628C2.21966 11.1316 2.38665 10.6176 2.81064 10.3927L5.06121 9.19857C5.77874 8.81777 6.27087 8.14055 6.4112 7.3404L6.85136 4.83096C6.93432 4.35823 7.37131 4.04065 7.84668 4.1078L10.3693 4.46463C11.1735 4.57848 11.9698 4.31967 12.5537 3.75489L14.3849 1.9835C14.7298 1.64987 15.2702 1.64987 15.6152 1.9835L17.4463 3.75489C18.0302 4.31973 18.8264 4.57848 19.6307 4.46463L22.1533 4.1078C22.6283 4.04059 23.0657 4.35823 23.1486 4.83096L23.5888 7.34046C23.7292 8.14061 24.2213 8.81789 24.9388 9.19857L27.1894 10.3927C27.6134 10.6176 27.7804 11.1316 27.5696 11.5628L26.4507 13.8516C26.094 14.5814 26.094 15.4186 26.4507 16.1484L27.5696 18.4373C27.7805 18.8686 27.6135 19.3826 27.1895 19.6075Z" fill="#2C73F6"/>
<path d="M21.3214 8.67868C20.9836 8.34083 20.4358 8.34083 20.0979 8.67868L8.67868 20.098C8.34083 20.4358 8.34083 20.9836 8.67868 21.3214C8.84761 21.4904 9.06903 21.5749 9.2904 21.5749C9.51176 21.5749 9.73325 21.4904 9.90211 21.3214L21.3213 9.90223C21.6593 9.56432 21.6593 9.01659 21.3214 8.67868Z" fill="#2C73F6"/>
<path d="M11.5395 7.21387C9.79037 7.21387 8.36731 8.63693 8.36731 10.3861C8.36731 12.1352 9.79037 13.5582 11.5395 13.5582C13.2886 13.5582 14.7117 12.1352 14.7117 10.3861C14.7117 8.63693 13.2886 7.21387 11.5395 7.21387ZM11.5395 11.8279C10.7444 11.8279 10.0976 11.1811 10.0976 10.386C10.0976 9.59094 10.7444 8.94413 11.5395 8.94413C12.3346 8.94413 12.9814 9.59094 12.9814 10.386C12.9814 11.1811 12.3346 11.8279 11.5395 11.8279Z" fill="#2C73F6"/>
<path d="M18.4606 16.4419C16.7115 16.4419 15.2885 17.865 15.2885 19.6141C15.2885 21.3632 16.7115 22.7863 18.4606 22.7863C20.2098 22.7863 21.6328 21.3632 21.6328 19.6141C21.6328 17.865 20.2098 16.4419 18.4606 16.4419ZM18.4606 21.0559C17.6656 21.0559 17.0187 20.4091 17.0187 19.6141C17.0187 18.819 17.6655 18.1722 18.4606 18.1722C19.2557 18.1722 19.9025 18.819 19.9025 19.6141C19.9025 20.4091 19.2557 21.0559 18.4606 21.0559Z" fill="#2C73F6"/>
</g>
<defs>
<clipPath id="clip0">
<rect width="30" height="30" fill="white"/>
</clipPath>
</defs>
</svg>
