<svg width="14" height="14" viewBox="0 0 14 14" fill="none" xmlns="http://www.w3.org/2000/svg">
<path d="M7.00749 5.59853C7.78896 5.596 8.41136 4.96853 8.40853 4.18527C8.4054 3.40202 7.78196 2.77812 7.00019 2.77753C6.21187 2.77678 5.58232 3.41185 5.58842 4.20225C5.59423 4.98253 6.22364 5.60181 7.00749 5.59853Z" fill="#C1C1C1"/>
<path d="M13.2553 0H0.744681C0.333468 0 0 0.333319 0 0.744681V13.2553C0 13.6667 0.333468 14 0.744681 14H13.2553C13.6667 14 14 13.6667 14 13.2553V0.744681C14 0.333319 13.6667 0 13.2553 0ZM7.01192 1.30557C8.60538 1.3096 9.88474 2.61338 9.87685 4.22502C9.86836 5.79928 8.56815 7.07536 6.97721 7.07C5.40206 7.06464 4.11049 5.75891 4.11943 4.18123C4.12881 2.58628 5.42128 1.30081 7.01192 1.30557ZM10.2398 8.20221C9.88743 8.56428 9.46325 8.82581 8.99202 9.00885C8.54655 9.18102 8.05849 9.2683 7.57534 9.32609C7.64832 9.40562 7.68272 9.44419 7.728 9.49021C8.38391 10.1493 9.04251 10.8056 9.69619 11.4666C9.9187 11.6916 9.96576 11.9709 9.84289 12.2329C9.7087 12.5196 9.4086 12.7077 9.114 12.6874C8.92753 12.6743 8.78217 12.5815 8.65319 12.4518C8.15813 11.9536 7.65368 11.4648 7.16904 10.9578C7.028 10.8101 6.96008 10.8376 6.83528 10.9662C6.33738 11.4788 5.83174 11.9836 5.32283 12.4853C5.09421 12.7108 4.8224 12.7512 4.55685 12.6226C4.27506 12.4861 4.09604 12.1985 4.10989 11.9091C4.11943 11.7137 4.21564 11.5644 4.34983 11.4304C4.9986 10.7824 5.64587 10.1327 6.29345 9.48351C6.33649 9.44062 6.3764 9.3946 6.43881 9.32787C5.55577 9.23568 4.75955 9.01853 4.07817 8.48534C3.99372 8.41906 3.9063 8.35502 3.82885 8.28085C3.53068 7.9943 3.50074 7.66649 3.73681 7.32826C3.93847 7.03902 4.27774 6.96128 4.62998 7.12734C4.69834 7.15936 4.76328 7.19972 4.82553 7.24277C6.09566 8.11553 7.84074 8.13981 9.11579 7.28238C9.24194 7.18602 9.37702 7.10619 9.5337 7.06657C9.83828 6.98838 10.1216 7.09994 10.2851 7.36623C10.4723 7.66962 10.4698 7.9663 10.2398 8.20221Z" fill="#C1C1C1"/>
</svg>
